<?xml version="1.0" encoding="UTF-8"?>
<svg id="Layer_1" data-name="Layer 1" xmlns="http://www.w3.org/2000/svg" viewBox="0 0 106.01 237.17">
  <defs>
    <style>
      .cls-1 {
        fill: #231f20;
      }

      .cls-2 {
        fill: #fff;
      }
    </style>
  </defs>
  <polygon class="cls-1" points="25.66 237.17 69.05 237.17 70.65 193.19 66.8 193.19 66.15 175.71 87.04 171.48 87.04 166.12 104.08 161.61 99.9 146.38 106.01 143.56 98.61 118.75 92.19 118.75 89.94 115.04 83.51 116.78 85.12 121.01 79.65 122.7 83.83 130.03 85.76 136.8 85.12 144.13 78.37 144.41 78.37 139.33 73.22 140.74 70.65 135.95 70.01 125.52 70.97 87.17 93.79 87.17 95.78 34.96 100.6 34.96 100.27 22.84 95.78 22.84 96.42 2.82 73.92 2.82 73.6 0 23.14 0 23.14 3.67 0 3.38 1.61 86.28 26.35 86.84 26.35 115.04 15.43 115.04 16.07 123.78 26.03 127.16 26.35 147.18 30.85 147.18 31.18 184.96 27.32 194.83 25.66 237.17"/>
  <polygon class="cls-2" points="65.98 147.39 79.48 156.26 65.98 162.43 65.98 147.39"/>
</svg>