<?xml version="1.0" encoding="UTF-8"?>
<svg id="Layer_1" data-name="Layer 1" xmlns="http://www.w3.org/2000/svg" viewBox="0 0 336.89 412.1">
  <defs>
    <style>
      .cls-1 {
        fill: #005a3c;
      }

      .cls-1, .cls-2, .cls-3, .cls-4, .cls-5, .cls-6 {
        stroke: #231f20;
        stroke-miterlimit: 10;
      }

      .cls-7, .cls-2 {
        fill: #231f20;
      }

      .cls-8, .cls-4 {
        fill: none;
      }

      .cls-9 {
        fill: #716967;
      }

      .cls-3 {
        fill: #326d4a;
      }

      .cls-5 {
        fill: #8b5e3c;
      }

      .cls-6 {
        fill: #754c29;
      }
    </style>
  </defs>
  <polyline class="cls-5" points="46.5 246.24 45.64 230.34 25.97 225.77 27.54 240.86"/>
  <polyline class="cls-6" points=".97 259.21 10.37 337.9 175.24 411.46 246.2 298.77 251.68 226.33 242.03 236.16 242.41 241.04 177.68 314.75"/>
  <polyline class="cls-3" points=".5 251.99 .96 259.04 177.85 314.48 242.41 241.04 242.54 234.2"/>
  <polygon class="cls-3" points="1.49 251.99 26.98 241.59 46.63 247.33 65.36 237.45 65.33 223.29 136.37 240.07 176.03 212.94 216.72 219.98 216.06 228.79 242.16 235.58 177.85 307.9 1.49 251.99"/>
  <polyline class="cls-5" points="46.5 230.02 53.94 227.2 54.59 230.34 58.5 228.77 58.5 224.2 64.5 222.11 64.5 236.98 47.68 246.24"/>
  <polyline class="cls-5" points="25.97 224.72 25.97 217.29 45.33 222.11 45.33 229.03"/>
  <polygon class="cls-5" points="46.5 228.51 46.5 222.11 63.98 214.68 64.5 222.11 58.5 224.2 58.5 222.11 54.07 223.16 53.68 226.33 46.5 228.51"/>
  <polygon class="cls-5" points="27.01 216.55 44.68 209.24 63.32 214.07 45.72 221.59 27.01 216.55"/>
  <polyline class="cls-9" points="54.49 223.54 58.01 222.73 58.01 228.41 54.97 229.71 54.3 226.82"/>
  <polygon class="cls-6" points="219.28 157.07 246.15 159.81 242.03 235.33 216.41 228.81 219.28 157.07"/>
  <polyline class="cls-6" points="242.55 234.88 251.68 225.16 257.41 160.85 246.15 159.81 242.03 235.33"/>
  <polygon class="cls-1" points="219.28 157.07 163.1 152.16 163.1 144.5 151.62 144.5 151.62 79.81 179.45 79.81 180.14 44.33 194.75 44.33 195.45 9.55 214.58 9.55 214.23 1.9 251.68 .5 259.8 4.33 298.41 2.59 305.36 6.77 298.06 78.79 336.32 80.5 327.62 142.42 308.14 166.77 219.28 157.07"/>
  <polyline class="cls-4" points="164.93 81.55 179.45 79.81 194.95 79.81 194.75 44.33 213.64 44.33 214.58 9.55"/>
  <polyline class="cls-4" points="273.45 81.55 282.51 80.55 323.73 81.55 336.32 80.5"/>
  <polyline class="cls-4" points="194.94 78.71 246.15 79.71 256.43 78.71 259.8 4.33"/>
  <polyline class="cls-4" points="256.43 78.71 290.86 79.71 298.06 78.79"/>
  <polyline class="cls-4" points="308.14 166.77 312.06 125.63 270.84 123.03 273.45 81.55 164.93 81.55 163.1 144.5"/>
  <polyline class="cls-4" points="312.06 125.63 318.25 121.73 280.43 120.44 270.84 123.03"/>
  <line class="cls-4" x1="318.25" y1="121.73" x2="321.91" y2="81.55"/>
  <line class="cls-8" x1="25.97" y1="224.72" x2="45.33" y2="229.03"/>
  <line class="cls-2" x1="25.97" y1="225.06" x2="45.33" y2="229.41"/>
  <path class="cls-7" d="M45.22,222.28l-.11,7.43c-.01.8,1.24.8,1.25,0l.11-7.43c.01-.8-1.24-.8-1.25,0h0Z"/>
  <path class="cls-7" d="M52.51,226.56c-.73.43-1.54.66-2.36.87-.94.24-1.87.47-2.81.71-.77.19-1.83.32-2.01,1.26-.08.46.16.93.62,1.08.43.14.8-.03,1.06-.37l-1.14-.48.09-.14.32-.09h0c-.78-.21-1.11,1-.33,1.21.49.14,1.02-.14,1.13-.66.15-.72-.72-1.04-1.14-.48l-.04.05.22-.22c.21-.15.53.35.42.36.09,0,.24-.09.34-.11.31-.08.62-.16.93-.23.64-.16,1.28-.32,1.92-.48,1.17-.29,2.36-.57,3.41-1.19.69-.41.06-1.49-.63-1.08h0Z"/>
  <path class="cls-7" d="M54.18,227.26c.28-.22.36-.59.38-.93.02-.31.03-.61.05-.92s.05-.64.08-.96c.02-.15.03-.31.05-.46.01-.09.02-.18.03-.26-.01.1.02-.14.02-.16.05-.32-.08-.69-.44-.77-.3-.07-.72.09-.77.44-.09.63-.17,1.27-.22,1.91-.02.3-.04.59-.06.89,0,.07,0,.13,0,.2,0,.03,0,.06,0,.09,0,.07,0,.06,0-.02,0,0-.03.14-.03.14.04-.08.04-.09,0-.03.05-.07.06-.08,0-.03-.26.21-.23.67,0,.88.27.25.61.22.88,0h0Z"/>
  <path class="cls-7" d="M53.31,227.54l.09.09c.06.06.12.1.2.13.07.04.15.06.24.05.09,0,.17-.01.24-.05.08-.03.14-.07.2-.13l.1-.13c.06-.1.08-.2.09-.32l-.02-.17c-.03-.11-.08-.2-.16-.28l-.09-.09c-.06-.06-.12-.1-.2-.13-.07-.04-.15-.06-.24-.05-.09,0-.17.01-.24.05-.08.03-.14.07-.2.13l-.1.13c-.06.1-.08.2-.09.32l.02.17c.03.11.08.2.16.28h0Z"/>
  <path class="cls-7" d="M53.22,227.41l.21.4c.04.07.09.13.16.18.06.06.13.09.21.11.08.03.17.03.25.01.08,0,.16-.03.23-.07l.13-.1c.08-.08.13-.17.16-.28l.02-.17c0-.11-.03-.22-.09-.32l-.21-.4c-.04-.07-.09-.13-.16-.18-.06-.06-.13-.09-.21-.11-.08-.03-.17-.03-.25-.01-.08,0-.16.03-.23.07l-.13.1c-.08.08-.13.17-.16.28l-.02.17c0,.11.03.22.09.32h0Z"/>
  <path class="cls-7" d="M64.38,228.23c-.02,3.07,0,6.14.07,9.22.02.8,1.27.81,1.25,0-.06-3.07-.09-6.14-.07-9.22,0-.8-1.25-.81-1.25,0h0Z"/>
  <path class="cls-7" d="M64.64,237.21c-.4.42-.92.6-1.45.77-.62.2-1.23.39-1.81.7-.63.34-1.22.72-1.9.96s-1.39.44-2.08.66c-.77.24-.44,1.45.33,1.21s1.48-.44,2.21-.71,1.38-.67,2.07-1.04c1.16-.62,2.58-.67,3.52-1.67.55-.58-.33-1.47-.88-.88h0Z"/>
  <path class="cls-7" d="M47.17,245.91c.04-.06.04-.06,0,0,.06-.04.06-.04,0,0-.04.02-.16.05-.05.03-.07.02-.14.04-.22.06-.03,0-.19.03-.06.01-.32.04-.64.06-.97.06-.57,0-1.18-.25-1.7-.48-.3-.13-.69-.1-.86.22-.14.27-.09.71.22.86.8.36,1.59.67,2.48.65.39,0,.8-.04,1.18-.11.44-.08.78-.3,1.05-.65.2-.26.05-.71-.22-.86-.33-.17-.64-.06-.86.22h0Z"/>
  <path class="cls-7" d="M27.28,241.66c1.36.48,2.72.97,4.09,1.44s2.75.74,4.13,1.07c2.82.69,5.59,1.53,8.32,2.53.76.28,1.08-.93.33-1.21-2.72-.99-5.5-1.84-8.32-2.53-1.39-.34-2.78-.6-4.13-1.07s-2.72-.96-4.09-1.44c-.76-.27-1.09.94-.33,1.21h0Z"/>
  <path class="cls-7" d="M43.62,246.78c.57.21,1.18.31,1.79.29.16,0,.33-.07.44-.18.11-.11.19-.29.18-.44-.01-.33-.27-.64-.62-.62-.23,0-.46,0-.69-.03l.17.02c-.32-.04-.63-.12-.93-.24-.14-.05-.35-.01-.48.06s-.25.22-.29.37c-.04.16-.03.34.06.48s.21.23.37.29h0Z"/>
  <path class="cls-7" d="M47.9,246.25c-.58-2.48-.22-5.02-.68-7.5-.49-2.66-.44-5.43-.58-8.13-.04-.8-1.29-.81-1.25,0,.13,2.71.05,5.52.57,8.19s.12,5.2.73,7.77c.18.78,1.39.45,1.21-.33h0Z"/>
  <path class="cls-7" d="M45.55,233.84c.36,2.88.42,5.79.18,8.69-.07.8,1.18.8,1.25,0,.24-2.9.18-5.81-.18-8.69-.04-.34-.26-.62-.62-.62-.31,0-.67.29-.62.62h0Z"/>
  <path class="cls-7" d="M45.94,246.13s-.06.02-.09.02l.17-.02c-.05,0-.1,0-.16,0l.17.02c-.23-.03-.45-.13-.67-.2s-.44-.16-.66-.25l.15.06c-.05-.02-.1-.04-.15-.06l-.48,1.14c.46.09.91.17,1.37.26.17.03.33.03.48-.06.13-.08.25-.22.29-.37.04-.16.03-.34-.06-.48-.08-.13-.22-.26-.37-.29-.46-.09-.91-.17-1.37-.26-.16-.03-.34-.03-.48.06-.12.07-.2.17-.26.3s-.07.28-.03.41c.05.14.14.31.29.37.33.15.67.28,1.02.4.38.13.77.28,1.19.17.31-.09.54-.45.44-.77s-.43-.53-.77-.44h0Z"/>
  <path class="cls-7" d="M26.01,225.77c.8,0,.81-1.25,0-1.25s-.81,1.25,0,1.25h0Z"/>
  <path class="cls-7" d="M26.06,225.51c.8,0,.81-1.25,0-1.25s-.81,1.25,0,1.25h0Z"/>
  <line class="cls-4" x1="177.85" y1="307.9" x2="175.24" y2="411.46"/>
  <line class="cls-1" x1="246.15" y1="79.71" x2="249.72" y2=".5"/>
  <line class="cls-1" x1="290.86" y1="79.71" x2="298.41" y2="2.59"/>
  <line class="cls-2" x1="280.43" y1="120.44" x2="282.51" y2="80.55"/>
</svg>